#!OML:ASF Y:\EmotionMaleHayes\Project 1\Capture day 1\Session 1\Male1.ASF
:FULLY-SPECIFIED
:DEGREES
631
root 0.403532 16.5909 -8.17974 357.047 23.4538 352.821
lowerback 8.49174 4.54189 9.6728
upperback 3.59996 6.81594 0.746586
thorax 0.0693368 3.5399 -5.10899
lowerneck -21.7935 2.28542 5.54975
upperneck 28.1155 1.74094 -1.12947
head 13.1444 1.26361 -1.06373
rclavicle -3.39176e-014 3.47873e-016
rhumerus -10.223 17.9386 -82.3178
rradius 54.6663
rwrist -4.64195
rhand -12.553 -30.0916
rfingers 7.12502
rthumb 13.5241 -59.6325
lclavicle -3.39176e-014 3.47873e-016
lhumerus -48.0654 4.72898 84.1291
lradius 19.6976
lwrist -29.0845
lhand -1.60011 -25.1717
lfingers 7.12502
lthumb 24.0569 3.34049
rfemur 17.8882 0.343464 31.0246
rtibia 7.88439
rfoot -21.9136 19.0354
rtoes 17.5279
lfemur -23.4778 6.64901 -3.00476
ltibia 7.60837
lfoot -9.12275 9.17442
ltoes -13.9767
632
root 0.529507 16.5524 -8.04546 356.963 23.1309 352.45
lowerback 8.47451 4.57187 9.98219
upperback 3.5535 6.88049 0.794092
thorax 0.073227 3.57367 -5.23114
lowerneck -21.8717 2.30508 5.64315
upperneck 28.2091 1.77315 -1.2638
head 13.203 1.27015 -1.12629
rclavicle -6.02318e-014 -3.47873e-015
rhumerus -10.0355 17.9154 -82.2943
rradius 54.5396
rwrist -4.75417
rhand -12.7973 -30.9256
rfingers 7.12502
rthumb 13.2886 -60.482
lclavicle -6.02318e-014 -3.47873e-015
lhumerus -48.2229 4.71273 84.0318
lradius 19.7296
lwrist -29.3892
lhand -1.33919 -25.1246
lfingers 7.12502
lthumb 24.3071 3.35426
rfemur 18.391 0.771376 31.3456
rtibia 8.19217
rfoot -22.4325 19.1513
rtoes 17.4688
lfemur -23.566 7.08864 -2.84331
ltibia 6.63326
lfoot -9.46131 9.25495
ltoes -13.5357
633
root 0.660061 16.5145 -7.91083 357.037 22.7689 352.347
lowerback 8.43432 4.59395 10.0078
upperback 3.4985 6.91005 0.822972
thorax 0.0417172 3.58433 -5.21567
lowerneck -21.9905 2.3727 5.60477
upperneck 28.2953 1.9008 -1.33738
head 13.2686 1.31166 -1.12573
rclavicle -1.62382e-014 1.99282e-014
rhumerus -9.81565 17.8924 -82.275
rradius 54.4017
rwrist -4.67544
rhand -12.774 -30.8758
rfingers 7.12502
rthumb 13.3111 -60.4306
lclavicle -1.62382e-014 1.99282e-014
lhumerus -48.3637 4.93309 83.9162
lradius 19.6355
lwrist -29.8847
lhand -1.18286 -25.2562
lfingers 7.12502
lthumb 24.4569 3.20255
rfemur 18.8199 1.22717 31.372
rtibia 8.65534
rfoot -22.9154 19.1686
rtoes 16.7991
lfemur -23.6645 7.41805 -3.05712
ltibia 6.03634
lfoot -9.70751 9.85848
ltoes -15.4157
634
root 0.794014 16.4742 -7.77381 357.328 22.5292 352.705
lowerback 8.25921 4.55816 9.68107
upperback 3.46803 6.81681 0.687618
thorax 0.0674425 3.53527 -5.15938
lowerneck -21.9129 2.55129 5.63185
upperneck 28.1913 2.1568 -1.35369
head 13.221 1.42172 -1.09146
rclavicle 1.0051e-014 1.48095e-014
rhumerus -9.66668 17.9575 -82.4061
rradius 54.2354
rwrist -4.50178
rhand -12.469 -30.263
rfingers 7.12502
rthumb 13.605 -59.7984
lclavicle 1.0051e-014 1.48095e-014
lhumerus -48.4468 4.94042 83.9544
lradius 19.5132
lwrist -29.8208
lhand -1.02461 -25.3923
lfingers 7.12502
lthumb 24.6086 3.04584
rfemur 19.2636 1.56971 30.8565
rtibia 9.01859
rfoot -23.1952 19.1898
rtoes 15.8589
lfemur -23.8286 7.5543 -3.90318
ltibia 5.8151
lfoot -9.99699 10.676
ltoes -16.153
635
root 0.921125 16.4348 -7.6348 357.466 22.3085 353.037
lowerback 8.26259 4.54407 9.31599
upperback 3.45622 6.76944 0.557351
thorax 0.0167318 3.50576 -5.09556
lowerneck -21.8477 2.71234 5.78373
upperneck 28.0783 2.38108 -1.49745
head 13.1749 1.51376 -1.13385
rclavicle -1.27269e-014 -8.59744e-015
rhumerus -9.64643 17.9711 -82.5696
rradius 54.0826
rwrist -4.36837
rhand -12.1607 -30.5529
rfingers 7.12502
rthumb 13.9021 -60.0682
lclavicle -1.27269e-014 -8.59744e-015
lhumerus -48.3883 4.95887 83.8374
lradius 19.3511
lwrist -29.8904
lhand -0.628607 -25.4859
lfingers 7.12502
lthumb 24.9881 2.89995
rfemur 19.829 1.90581 30.3731
rtibia 9.25545
rfoot -23.1922 19.2922
rtoes 15.4845
lfemur -24.4522 9.15992 -5.07264
ltibia 7.05262
lfoot -10.2623 9.83371
ltoes -14.8492
636
root 1.04916 16.3929 -7.49038 357.346 22.0738 352.978
lowerback 8.31052 4.50042 9.28018
upperback 3.47719 6.71287 0.557838
thorax -0.000929637 3.47703 -5.07685
lowerneck -21.9073 2.8271 5.83005
upperneck 28.0968 2.57615 -1.65639
head 13.2064 1.58088 -1.16894
rclavicle 8.20919e-015 -2.69726e-014
rhumerus -9.68529 18.1514 -82.716
rradius 54.0009
rwrist -4.54971
rhand -12.2854 -30.9725
rfingers 7.12502
rthumb 13.7819 -60.496
lclavicle 8.20919e-015 -2.69726e-014
lhumerus -48.2412 5.26488 83.4878
lradius 19.0975
lwrist -30.7284
lhand -0.6031 -25.5991
lfingers 7.12502
lthumb 25.0126 2.78343
rfemur 20.4356 2.09482 30.2372
rtibia 9.64399
rfoot -23.2045 19.4662
rtoes 15.3806
lfemur -24.5622 9.25573 -5.3895
ltibia 7.89879
lfoot -10.6173 10.1667
ltoes -13.6452
637
root 1.17681 16.3513 -7.34151 357.227 21.7527 352.784
lowerback 8.25196 4.48718 9.39687
upperback 3.50667 6.69633 0.569551
thorax 0.0727521 3.47462 -5.11959
lowerneck -21.9197 2.93232 5.82716
upperneck 28.0995 2.75192 -1.73052
head 13.2191 1.64622 -1.16617
rclavicle -3.31411e-014 -1.64743e-014
rhumerus -9.79877 18.2564 -82.894
rradius 53.9054
rwrist -4.75291
rhand -12.6943 -31.1808
rfingers 7.12502
rthumb 13.3879 -60.7307
lclavicle -3.31411e-014 -1.64743e-014
lhumerus -48.0829 5.58512 83.1107
lradius 18.8985
lwrist -31.7435
lhand -0.852724 -25.7206
lfingers 7.12502
lthumb 24.7734 2.69501
rfemur 20.9743 2.64247 30.5155
rtibia 10.2216
rfoot -23.5096 19.1075
rtoes 14.6081
lfemur -24.6536 9.23373 -5.47515
ltibia 8.8744
lfoot -10.7664 10.5628
ltoes -12.8303
638
root 1.29739 16.318 -7.19226 357.215 21.3883 352.932
lowerback 8.36025 4.57542 9.08999
upperback 3.4977 6.80099 0.511231
thorax -0.0108929 3.5194 -5.02919
lowerneck -21.8753 2.96846 5.85599
upperneck 28.0343 2.80864 -1.77306
head 13.1867 1.66722 -1.17785
rclavicle 1.6847e-014 -2.95195e-014
rhumerus -10.0915 17.9338 -83.0522
rradius 53.7789
rwrist -4.44671
rhand -13.0039 -30.3276
rfingers 7.12502
rthumb 13.0894 -59.8969
lclavicle 1.6847e-014 -2.95195e-014
lhumerus -47.8923 5.79524 82.7624
lradius 18.7445
lwrist -32.5471
lhand -1.15406 -25.6368
lfingers 7.12502
lthumb 24.4845 2.81813
rfemur 21.497 3.57883 30.6667
rtibia 10.8944
rfoot -23.733 18.1893
rtoes 12.8639
lfemur -24.8933 9.69922 -5.99601
ltibia 10.5261
lfoot -10.4209 10.4004
ltoes -14.0795
639
root 1.41768 16.2872 -7.03981 357.153 21.1814 353.043
lowerback 8.4747 4.60596 8.80595
upperback 3.50138 6.83022 0.448046
thorax -0.0930907 3.5277 -4.95311
lowerneck -21.984 3.00951 5.84273
upperneck 28.0865 2.83827 -1.6895
head 13.2309 1.69006 -1.13671
rclavicle 3.20416e-014 2.96189e-014
rhumerus -10.4392 17.6779 -83.2848
rradius 53.6484
rwrist -4.37714
rhand -12.5269 -31.0692
rfingers 7.12502
rthumb 13.5492 -60.6084
lclavicle 3.20416e-014 2.96189e-014
lhumerus -47.5293 5.76451 82.5472
lradius 18.49
lwrist -32.8174
lhand -1.24754 -25.4084
lfingers 7.12502
lthumb 24.3949 3.05866
rfemur 22.0327 4.27987 30.7335
rtibia 11.5721
rfoot -23.6114 17.3965
rtoes 11.2775
lfemur -25.2255 9.96055 -6.47184
ltibia 12.5327
lfoot -9.75776 10.0321
ltoes -14.8488
640
root 1.54707 16.2578 -6.88356 357.147 21.0638 353.086
lowerback 8.41733 4.55909 8.63243
upperback 3.47642 6.74922 0.391282
thorax -0.114037 3.48403 -4.90965
lowerneck -22.0964 3.11256 5.89713
upperneck 28.2082 2.956 -1.67503
head 13.3115 1.74993 -1.1182
rclavicle -8.88071e-014 7.05686e-015
rhumerus -10.9202 17.6659 -83.6477
rradius 53.5712
rwrist -4.65025
rhand -12.9456 -31.4822
rfingers 7.12502
rthumb 13.1456 -61.0478
lclavicle -8.88071e-014 7.05686e-015
lhumerus -47.2386 5.83155 82.2969
lradius 18.3007
lwrist -32.8776
lhand -1.31015 -25.2444
lfingers 7.12502
lthumb 24.3349 3.23073
rfemur 22.5312 4.67706 30.6835
rtibia 12.1114
rfoot -23.2821 17.1631
rtoes 10.7122
lfemur -25.3817 9.30494 -6.6806
ltibia 13.8437
lfoot -8.75971 10.1951
ltoes -10.6093
641
root 1.68028 16.2372 -6.73235 357.224 21.1584 353.147
lowerback 8.36373 4.43934 8.4328
upperback 3.35487 6.57513 0.380948
thorax -0.2604 3.38418 -4.806
lowerneck -21.9211 3.21446 5.97919
upperneck 28.145 3.13131 -1.81848
head 13.2612 1.81539 -1.15851
rclavicle -6.01324e-015 4.80065e-014
rhumerus -11.61 17.585 -83.9676
rradius 53.4733
rwrist -4.67845
rhand -13.2447 -31.4488
rfingers 7.12502
rthumb 12.8573 -61.0327
lclavicle -6.01324e-015 4.80065e-014
lhumerus -47.1379 6.19223 81.9434
lradius 18.2405
lwrist -33.4716
lhand -1.84601 -25.1977
lfingers 7.12502
lthumb 23.8211 3.34544
rfemur 22.851 5.0154 30.6348
rtibia 12.6972
rfoot -22.8631 16.9338
rtoes 10.653
lfemur -26.5271 10.8122 -7.3784
ltibia 16.3699
lfoot -6.88173 8.26589
ltoes -5.70301
642
root 1.81402 16.2227 -6.58021 357.32 21.3828 353.139
lowerback 8.23873 4.31175 8.3395
upperback 3.25527 6.39098 0.360048
thorax -0.330741 3.28502 -4.76185
lowerneck -21.7563 3.28571 5.97952
upperneck 28.0335 3.26094 -1.87052
head 13.1879 1.86432 -1.1573
rclavicle 3.90115e-014 1.64991e-014
rhumerus -12.2497 17.2771 -84.2199
rradius 53.2263
rwrist -4.368
rhand -12.9753 -30.7348
rfingers 7.12502
rthumb 13.117 -60.3023
lclavicle 3.90115e-014 1.64991e-014
lhumerus -46.7613 6.81396 81.3288
lradius 17.9256
lwrist -34.7201
lhand -2.23506 -25.363
lfingers 7.12502
lthumb 23.4479 3.22822
rfemur 23.0555 5.44871 30.7538
rtibia 13.4282
rfoot -22.3034 16.5452
rtoes 11.001
lfemur -26.5496 8.56063 -7.13461
ltibia 16.692
lfoot -5.33944 9.52775
ltoes -0.788608
643
root 1.95502 16.2097 -6.41666 357.609 21.4423 353.402
lowerback 7.90167 4.29685 8.09798
upperback 3.20202 6.32091 0.162435
thorax -0.21492 3.25281 -4.80187
lowerneck -21.8485 3.31687 6.00807
upperneck 28.0599 3.26284 -1.79135
head 13.2176 1.87863 -1.12978
rclavicle 3.39425e-014 -9.34288e-015
rhumerus -12.8454 16.7463 -84.6151
rradius 52.9043
rwrist -4.11646
rhand -12.6122 -29.9761
rfingers 7.12502
rthumb 13.467 -59.5207
lclavicle 3.39425e-014 -9.34288e-015
lhumerus -46.1477 7.53029 80.3998
lradius 17.4535
lwrist -36.1769
lhand -1.69086 -25.6712
lfingers 7.12502
lthumb 23.9699 2.85241
rfemur 23.2193 5.83483 30.443
rtibia 14.2406
rfoot -21.6896 16.4898
rtoes 10.9881
lfemur -26.949 7.57659 -7.43239
ltibia 17.787
lfoot -4.30282 9.75957
ltoes 0.146933
644
root 2.09345 16.2013 -6.24994 358.101 21.4252 353.896
lowerback 7.42712 4.33099 7.61385
upperback 3.13897 6.28901 -0.121492
thorax -0.0452878 3.23955 -4.78762
lowerneck -21.8967 3.36978 6.12415
upperneck 28.0124 3.27758 -1.75227
head 13.211 1.90168 -1.13073
rclavicle -7.85199e-015 1.43125e-014
rhumerus -13.5248 16.2047 -85.1683
rradius 52.6072
rwrist -4.14872
rhand -12.7852 -29.8857
rfingers 7.12502
rthumb 13.3002 -59.4413
lclavicle -7.85199e-015 1.43125e-014
lhumerus -45.5165 8.14007 79.4943
lradius 17.1249
lwrist -37.4729
lhand -0.10517 -25.9468
lfingers 7.12502
lthumb 25.4896 2.36837
rfemur 23.1829 6.19901 29.8319
rtibia 15.1731
rfoot -21.0483 16.5354
rtoes 9.95862
lfemur -27.7197 7.06251 -8.09051
ltibia 19.6033
lfoot -4.10253 9.71368
ltoes 0.819752
